<mxfile host="app.diagrams.net" agent="Mozilla/5.0 (Windows NT 10.0; Win64; x64) AppleWebKit/537.36 (KHTML, like Gecko) Chrome/127.0.0.0 Safari/537.36" version="24.7.5">
  <diagram name="Page-1" id="SgukDzYEkeoi6o0zfx9z">
    <mxGraphModel dx="1050" dy="522" grid="1" gridSize="10" guides="1" tooltips="1" connect="1" arrows="1" fold="1" page="1" pageScale="1" pageWidth="1100" pageHeight="850" math="0" shadow="0">
      <root>
        <mxCell id="0" />
        <mxCell id="1" parent="0" />
        <mxCell id="ARpNIC_2m0G1T8vwaDpd-1" value="Adminstrator" style="shape=umlActor;verticalLabelPosition=bottom;verticalAlign=top;html=1;outlineConnect=0;" vertex="1" parent="1">
          <mxGeometry x="40" y="80" width="60" height="80" as="geometry" />
        </mxCell>
        <mxCell id="ARpNIC_2m0G1T8vwaDpd-2" value="Generate Reports" style="ellipse;whiteSpace=wrap;html=1;" vertex="1" parent="1">
          <mxGeometry x="280" y="10" width="140" height="70" as="geometry" />
        </mxCell>
        <mxCell id="ARpNIC_2m0G1T8vwaDpd-3" value="Create Lesson Plans" style="ellipse;whiteSpace=wrap;html=1;" vertex="1" parent="1">
          <mxGeometry x="290" y="210" width="140" height="70" as="geometry" />
        </mxCell>
        <mxCell id="ARpNIC_2m0G1T8vwaDpd-4" value="Manage User" style="ellipse;whiteSpace=wrap;html=1;" vertex="1" parent="1">
          <mxGeometry x="280" y="110" width="140" height="70" as="geometry" />
        </mxCell>
        <mxCell id="ARpNIC_2m0G1T8vwaDpd-6" value="" style="endArrow=none;html=1;rounded=0;entryX=0;entryY=0.5;entryDx=0;entryDy=0;exitX=1;exitY=0.3333333333333333;exitDx=0;exitDy=0;exitPerimeter=0;" edge="1" parent="1" source="ARpNIC_2m0G1T8vwaDpd-1" target="ARpNIC_2m0G1T8vwaDpd-2">
          <mxGeometry relative="1" as="geometry">
            <mxPoint x="100" y="110" as="sourcePoint" />
            <mxPoint x="260" y="110" as="targetPoint" />
          </mxGeometry>
        </mxCell>
        <mxCell id="ARpNIC_2m0G1T8vwaDpd-7" value="" style="endArrow=none;html=1;rounded=0;exitX=1;exitY=0.3333333333333333;exitDx=0;exitDy=0;exitPerimeter=0;entryX=0;entryY=0.5;entryDx=0;entryDy=0;" edge="1" parent="1" source="ARpNIC_2m0G1T8vwaDpd-1" target="ARpNIC_2m0G1T8vwaDpd-4">
          <mxGeometry relative="1" as="geometry">
            <mxPoint x="300" y="220" as="sourcePoint" />
            <mxPoint x="460" y="220" as="targetPoint" />
          </mxGeometry>
        </mxCell>
        <mxCell id="ARpNIC_2m0G1T8vwaDpd-8" value="Instructor" style="shape=umlActor;verticalLabelPosition=bottom;verticalAlign=top;html=1;" vertex="1" parent="1">
          <mxGeometry x="42.5" y="240" width="55" height="70" as="geometry" />
        </mxCell>
        <mxCell id="ARpNIC_2m0G1T8vwaDpd-11" value="" style="endArrow=none;html=1;rounded=0;exitX=1;exitY=0.3333333333333333;exitDx=0;exitDy=0;exitPerimeter=0;entryX=0;entryY=0.5;entryDx=0;entryDy=0;" edge="1" parent="1" source="ARpNIC_2m0G1T8vwaDpd-8" target="ARpNIC_2m0G1T8vwaDpd-3">
          <mxGeometry relative="1" as="geometry">
            <mxPoint x="310" y="200" as="sourcePoint" />
            <mxPoint x="470" y="200" as="targetPoint" />
          </mxGeometry>
        </mxCell>
        <mxCell id="ARpNIC_2m0G1T8vwaDpd-12" value="Conduct Class" style="ellipse;whiteSpace=wrap;html=1;align=center;" vertex="1" parent="1">
          <mxGeometry x="290" y="310" width="140" height="60" as="geometry" />
        </mxCell>
        <mxCell id="ARpNIC_2m0G1T8vwaDpd-13" value="" style="endArrow=none;html=1;rounded=0;exitX=1;exitY=0.3333333333333333;exitDx=0;exitDy=0;exitPerimeter=0;entryX=0;entryY=0.5;entryDx=0;entryDy=0;" edge="1" parent="1" source="ARpNIC_2m0G1T8vwaDpd-8" target="ARpNIC_2m0G1T8vwaDpd-12">
          <mxGeometry relative="1" as="geometry">
            <mxPoint x="310" y="360" as="sourcePoint" />
            <mxPoint x="470" y="360" as="targetPoint" />
          </mxGeometry>
        </mxCell>
        <mxCell id="ARpNIC_2m0G1T8vwaDpd-14" value="Grade_Students" style="ellipse;whiteSpace=wrap;html=1;align=center;" vertex="1" parent="1">
          <mxGeometry x="540" y="200" width="130" height="70" as="geometry" />
        </mxCell>
        <mxCell id="ARpNIC_2m0G1T8vwaDpd-15" value="Answer Queries" style="ellipse;whiteSpace=wrap;html=1;align=center;" vertex="1" parent="1">
          <mxGeometry x="530" y="310" width="150" height="60" as="geometry" />
        </mxCell>
        <mxCell id="ARpNIC_2m0G1T8vwaDpd-16" value="" style="endArrow=none;html=1;rounded=0;exitX=1;exitY=0.5;exitDx=0;exitDy=0;entryX=0.009;entryY=0.623;entryDx=0;entryDy=0;entryPerimeter=0;" edge="1" parent="1" source="ARpNIC_2m0G1T8vwaDpd-3" target="ARpNIC_2m0G1T8vwaDpd-14">
          <mxGeometry relative="1" as="geometry">
            <mxPoint x="700" y="230" as="sourcePoint" />
            <mxPoint x="860" y="230" as="targetPoint" />
          </mxGeometry>
        </mxCell>
        <mxCell id="ARpNIC_2m0G1T8vwaDpd-17" value="" style="endArrow=none;html=1;rounded=0;exitX=1;exitY=0.5;exitDx=0;exitDy=0;entryX=0;entryY=0.5;entryDx=0;entryDy=0;" edge="1" parent="1" source="ARpNIC_2m0G1T8vwaDpd-12" target="ARpNIC_2m0G1T8vwaDpd-15">
          <mxGeometry relative="1" as="geometry">
            <mxPoint x="700" y="230" as="sourcePoint" />
            <mxPoint x="860" y="230" as="targetPoint" />
          </mxGeometry>
        </mxCell>
        <mxCell id="ARpNIC_2m0G1T8vwaDpd-18" value="Student" style="shape=umlActor;verticalLabelPosition=bottom;verticalAlign=top;html=1;" vertex="1" parent="1">
          <mxGeometry x="42.5" y="400" width="60" height="80" as="geometry" />
        </mxCell>
        <mxCell id="ARpNIC_2m0G1T8vwaDpd-19" value="Enroll in Course" style="ellipse;whiteSpace=wrap;html=1;" vertex="1" parent="1">
          <mxGeometry x="290" y="400" width="140" height="70" as="geometry" />
        </mxCell>
        <mxCell id="ARpNIC_2m0G1T8vwaDpd-21" value="Guest" style="shape=umlActor;verticalLabelPosition=bottom;verticalAlign=top;html=1;" vertex="1" parent="1">
          <mxGeometry x="50" y="560" width="52.5" height="80" as="geometry" />
        </mxCell>
        <mxCell id="ARpNIC_2m0G1T8vwaDpd-22" value="View Case Material" style="ellipse;whiteSpace=wrap;html=1;" vertex="1" parent="1">
          <mxGeometry x="290" y="500" width="140" height="70" as="geometry" />
        </mxCell>
        <mxCell id="ARpNIC_2m0G1T8vwaDpd-23" value="" style="endArrow=none;html=1;rounded=0;exitX=1;exitY=0.3333333333333333;exitDx=0;exitDy=0;exitPerimeter=0;entryX=0;entryY=0.5;entryDx=0;entryDy=0;" edge="1" parent="1" source="ARpNIC_2m0G1T8vwaDpd-18" target="ARpNIC_2m0G1T8vwaDpd-19">
          <mxGeometry relative="1" as="geometry">
            <mxPoint x="340" y="520" as="sourcePoint" />
            <mxPoint x="500" y="520" as="targetPoint" />
          </mxGeometry>
        </mxCell>
        <mxCell id="ARpNIC_2m0G1T8vwaDpd-24" value="" style="endArrow=none;html=1;rounded=0;exitX=1;exitY=0.3333333333333333;exitDx=0;exitDy=0;exitPerimeter=0;entryX=0.011;entryY=0.6;entryDx=0;entryDy=0;entryPerimeter=0;" edge="1" parent="1" source="ARpNIC_2m0G1T8vwaDpd-18" target="ARpNIC_2m0G1T8vwaDpd-22">
          <mxGeometry relative="1" as="geometry">
            <mxPoint x="340" y="520" as="sourcePoint" />
            <mxPoint x="500" y="520" as="targetPoint" />
          </mxGeometry>
        </mxCell>
        <mxCell id="ARpNIC_2m0G1T8vwaDpd-25" value="Take Exam" style="ellipse;whiteSpace=wrap;html=1;" vertex="1" parent="1">
          <mxGeometry x="540" y="425" width="140" height="70" as="geometry" />
        </mxCell>
        <mxCell id="ARpNIC_2m0G1T8vwaDpd-26" value="View Progress" style="ellipse;whiteSpace=wrap;html=1;" vertex="1" parent="1">
          <mxGeometry x="780" y="430" width="140" height="70" as="geometry" />
        </mxCell>
        <mxCell id="ARpNIC_2m0G1T8vwaDpd-27" value="" style="endArrow=none;html=1;rounded=0;exitX=1;exitY=0.5;exitDx=0;exitDy=0;entryX=0;entryY=0.5;entryDx=0;entryDy=0;" edge="1" parent="1" source="ARpNIC_2m0G1T8vwaDpd-22" target="ARpNIC_2m0G1T8vwaDpd-25">
          <mxGeometry relative="1" as="geometry">
            <mxPoint x="610" y="510" as="sourcePoint" />
            <mxPoint x="770" y="510" as="targetPoint" />
          </mxGeometry>
        </mxCell>
        <mxCell id="ARpNIC_2m0G1T8vwaDpd-28" value="" style="endArrow=none;html=1;rounded=0;exitX=1;exitY=0.5;exitDx=0;exitDy=0;entryX=0;entryY=0.5;entryDx=0;entryDy=0;" edge="1" parent="1" source="ARpNIC_2m0G1T8vwaDpd-19" target="ARpNIC_2m0G1T8vwaDpd-25">
          <mxGeometry relative="1" as="geometry">
            <mxPoint x="610" y="510" as="sourcePoint" />
            <mxPoint x="770" y="510" as="targetPoint" />
          </mxGeometry>
        </mxCell>
        <mxCell id="ARpNIC_2m0G1T8vwaDpd-30" value="" style="endArrow=none;html=1;rounded=0;exitX=1;exitY=0.5;exitDx=0;exitDy=0;entryX=0;entryY=0.5;entryDx=0;entryDy=0;" edge="1" parent="1" source="ARpNIC_2m0G1T8vwaDpd-25" target="ARpNIC_2m0G1T8vwaDpd-26">
          <mxGeometry relative="1" as="geometry">
            <mxPoint x="610" y="510" as="sourcePoint" />
            <mxPoint x="770" y="510" as="targetPoint" />
          </mxGeometry>
        </mxCell>
        <mxCell id="ARpNIC_2m0G1T8vwaDpd-31" value="" style="endArrow=none;html=1;rounded=0;exitX=1;exitY=0.3333333333333333;exitDx=0;exitDy=0;exitPerimeter=0;" edge="1" parent="1" source="ARpNIC_2m0G1T8vwaDpd-21">
          <mxGeometry relative="1" as="geometry">
            <mxPoint x="370" y="450" as="sourcePoint" />
            <mxPoint x="290" y="440" as="targetPoint" />
          </mxGeometry>
        </mxCell>
        <mxCell id="ARpNIC_2m0G1T8vwaDpd-32" value="" style="endArrow=none;html=1;rounded=0;exitX=1;exitY=0.3333333333333333;exitDx=0;exitDy=0;exitPerimeter=0;" edge="1" parent="1" source="ARpNIC_2m0G1T8vwaDpd-21" target="ARpNIC_2m0G1T8vwaDpd-22">
          <mxGeometry relative="1" as="geometry">
            <mxPoint x="370" y="640" as="sourcePoint" />
            <mxPoint x="530" y="640" as="targetPoint" />
          </mxGeometry>
        </mxCell>
        <mxCell id="ARpNIC_2m0G1T8vwaDpd-33" value="Contact Support" style="ellipse;whiteSpace=wrap;html=1;" vertex="1" parent="1">
          <mxGeometry x="280" y="610" width="140" height="70" as="geometry" />
        </mxCell>
        <mxCell id="ARpNIC_2m0G1T8vwaDpd-34" value="" style="endArrow=none;html=1;rounded=0;exitX=1;exitY=0.3333333333333333;exitDx=0;exitDy=0;exitPerimeter=0;entryX=0;entryY=0.5;entryDx=0;entryDy=0;" edge="1" parent="1" source="ARpNIC_2m0G1T8vwaDpd-21" target="ARpNIC_2m0G1T8vwaDpd-33">
          <mxGeometry relative="1" as="geometry">
            <mxPoint x="430" y="610" as="sourcePoint" />
            <mxPoint x="590" y="610" as="targetPoint" />
          </mxGeometry>
        </mxCell>
        <mxCell id="ARpNIC_2m0G1T8vwaDpd-35" value="" style="endArrow=none;html=1;rounded=0;exitX=1;exitY=0.3333333333333333;exitDx=0;exitDy=0;exitPerimeter=0;entryX=0;entryY=0.5;entryDx=0;entryDy=0;" edge="1" parent="1" source="ARpNIC_2m0G1T8vwaDpd-18" target="ARpNIC_2m0G1T8vwaDpd-33">
          <mxGeometry relative="1" as="geometry">
            <mxPoint x="430" y="610" as="sourcePoint" />
            <mxPoint x="590" y="610" as="targetPoint" />
          </mxGeometry>
        </mxCell>
        <mxCell id="ARpNIC_2m0G1T8vwaDpd-36" value="" style="endArrow=none;html=1;rounded=0;exitX=1;exitY=0.3333333333333333;exitDx=0;exitDy=0;exitPerimeter=0;" edge="1" parent="1" source="ARpNIC_2m0G1T8vwaDpd-8">
          <mxGeometry relative="1" as="geometry">
            <mxPoint x="430" y="400" as="sourcePoint" />
            <mxPoint x="280" y="645" as="targetPoint" />
          </mxGeometry>
        </mxCell>
      </root>
    </mxGraphModel>
  </diagram>
</mxfile>
